<svg xmlns="http://www.w3.org/2000/svg" xmlns:xlink="http://www.w3.org/1999/xlink" viewBox="0 0 48 48" version="1.1">
<g id="surface1">
<path style=" fill:#FF9800;" d="M 24 6 L 6 24 L 7 25 L 8 25 C 9.105469 25 10 25.894531 10 27 C 10 27.292969 9.933594 27.570313 9.820313 27.820313 L 23 41 L 25 41 L 42 24 Z "></path>
<path style=" fill:#FF9800;" d="M 11 11 L 37 11 L 37 37 L 11 37 Z "></path>
<path style=" fill:#FFEB3B;" d="M 13 24 C 13 30.078125 17.921875 35 24 35 C 30.074219 35 35 30.078125 35 24 C 35 17.921875 30.074219 13 24 13 C 17.921875 13 13 17.921875 13 24 "></path>
<path style=" fill:#64B5F6;" d="M 40 37 L 31 37 C 29.894531 37 29 36.105469 29 35 C 29 33.894531 29.894531 33 31 33 L 34 33 C 35.105469 33 36 32.105469 36 31 C 36 29.894531 35.105469 29 34 29 L 19 29 C 17.894531 29 17 28.105469 17 27 C 17 25.898438 17.890625 25.007813 18.988281 25 L 21 25 C 22.105469 25 23 24.105469 23 23 C 23 21.894531 22.105469 21 21 21 L 7 21 C 5.894531 21 5 21.898438 5 23 C 5 24.105469 5.894531 25 7 25 L 8 25 C 9.101563 25.007813 9.988281 25.898438 9.988281 27 C 9.988281 28.105469 9.09375 29 7.988281 29 L 8 29 C 6.894531 29 6 29.894531 6 31 C 6 32.105469 6.894531 33 8 33 L 9 33 C 10.105469 33 11 33.894531 11 35 C 11 36.105469 10.105469 37 9 37 C 7.894531 37 7 37.894531 7 39 C 7 40.105469 7.894531 41 9 41 L 40 41 C 40.800781 41 41.484375 40.527344 41.804688 39.847656 L 41.808594 39.847656 C 41.863281 39.722656 41.910156 39.597656 41.941406 39.460938 C 41.945313 39.453125 41.949219 39.445313 41.949219 39.4375 C 41.980469 39.296875 42 39.148438 42 39 C 42 37.894531 41.105469 37 40 37 Z "></path>
<path style=" fill:#BBDEFB;" d="M 24 35 C 28.273438 35 31.96875 32.558594 33.789063 29 L 19 29 C 17.894531 29 17 28.105469 17 27 C 17 25.898438 17.890625 25.007813 18.988281 25 L 21 25 C 22.105469 25 23 24.105469 23 23 C 23 21.894531 22.105469 21 21 21 L 13.425781 21 C 13.152344 21.953125 13 22.960938 13 24 C 13 30.078125 17.921875 35 24 35 Z "></path>
</g>
</svg>
